<svg version="1.1" xmlns="http://www.w3.org/2000/svg" viewBox="0 0 1376.7274305555554 832.2309027777778" width="1376.7274305555554" height="832.2309027777778">
  <!-- svg-source:excalidraw -->
  
  <defs>
    <style class="style-fonts">
      @font-face {
        font-family: "Virgil";
        src: url("https://excalidraw.com/Virgil.woff2");
      }
      @font-face {
        font-family: "Cascadia";
        src: url("https://excalidraw.com/Cascadia.woff2");
      }
      @font-face {
        font-family: "Assistant";
        src: url("https://excalidraw.com/Assistant-Regular.woff2");
      }
    </style>
    
  </defs>
  <rect x="0" y="0" width="1376.7274305555554" height="832.2309027777778" fill="#ffffff"></rect><g transform="translate(486.66014746198744 207.75810197424107) rotate(0 200.66392517089844 45)"><text x="0" y="0" font-family="Virgil, Segoe UI Emoji" font-size="36px" fill="#1e1e1e" text-anchor="start" style="white-space: pre;" direction="ltr" dominant-baseline="text-before-edge">Business Beavers Ltd.</text><text x="0" y="45" font-family="Virgil, Segoe UI Emoji" font-size="36px" fill="#1e1e1e" text-anchor="start" style="white-space: pre;" direction="ltr" dominant-baseline="text-before-edge"></text></g><g stroke-linecap="round" transform="translate(10 10) rotate(0 678.3637152777777 406.1154513888889)"><path d="M32 0 C374.64 2.12, 715.8 2.04, 1324.73 0 M32 0 C408.1 -2.5, 784.4 -2.63, 1324.73 0 M1324.73 0 C1347.59 1.58, 1356.83 9.47, 1356.73 32 M1324.73 0 C1346 -0.01, 1358.04 12.81, 1356.73 32 M1356.73 32 C1357.6 205.57, 1357.48 378.75, 1356.73 780.23 M1356.73 32 C1357.35 262.32, 1357.11 492.7, 1356.73 780.23 M1356.73 780.23 C1357.13 802.86, 1344.89 811.03, 1324.73 812.23 M1356.73 780.23 C1357.95 803.2, 1346.02 811.4, 1324.73 812.23 M1324.73 812.23 C812.8 808.41, 302.04 809.39, 32 812.23 M1324.73 812.23 C874.83 812.92, 424.26 812.19, 32 812.23 M32 812.23 C12.59 811.53, 0.78 800.9, 0 780.23 M32 812.23 C9.59 810.62, -0.79 803.55, 0 780.23 M0 780.23 C0.48 547.77, 1.08 316.83, 0 32 M0 780.23 C-1.1 577.76, -1.09 375.39, 0 32 M0 32 C1.1 9.64, 11.81 0.27, 32 0 M0 32 C-1.19 10.95, 10.27 -0.93, 32 0" stroke="#1e1e1e" stroke-width="2" fill="none"></path></g><g stroke-opacity="0.4" fill-opacity="0.4" transform="translate(480.74685160318995 270.65104166666686) rotate(0 205.8419189453125 87.5)"><text x="205.8419189453125" y="0" font-family="Virgil, Segoe UI Emoji" font-size="28px" fill="#1e1e1e" text-anchor="middle" style="white-space: pre;" direction="ltr" dominant-baseline="text-before-edge">Buying things cheap and</text><text x="205.8419189453125" y="35" font-family="Virgil, Segoe UI Emoji" font-size="28px" fill="#1e1e1e" text-anchor="middle" style="white-space: pre;" direction="ltr" dominant-baseline="text-before-edge">selling them for more since 94</text><text x="205.8419189453125" y="70" font-family="Virgil, Segoe UI Emoji" font-size="28px" fill="#1e1e1e" text-anchor="middle" style="white-space: pre;" direction="ltr" dominant-baseline="text-before-edge"></text><text x="205.8419189453125" y="105" font-family="Virgil, Segoe UI Emoji" font-size="28px" fill="#1e1e1e" text-anchor="middle" style="white-space: pre;" direction="ltr" dominant-baseline="text-before-edge"></text><text x="205.8419189453125" y="140" font-family="Virgil, Segoe UI Emoji" font-size="28px" fill="#1e1e1e" text-anchor="middle" style="white-space: pre;" direction="ltr" dominant-baseline="text-before-edge"></text></g><g transform="translate(398.8811221652559 426.08506944444446) rotate(0 120.74995422363281 69.99999999999994)"><text x="0" y="0" font-family="Virgil, Segoe UI Emoji" font-size="28px" fill="#1e1e1e" text-anchor="start" style="white-space: pre;" direction="ltr" dominant-baseline="text-before-edge">4 Wireframe Lane</text><text x="0" y="35" font-family="Virgil, Segoe UI Emoji" font-size="28px" fill="#1e1e1e" text-anchor="start" style="white-space: pre;" direction="ltr" dominant-baseline="text-before-edge">Sketchton</text><text x="0" y="70" font-family="Virgil, Segoe UI Emoji" font-size="28px" fill="#1e1e1e" text-anchor="start" style="white-space: pre;" direction="ltr" dominant-baseline="text-before-edge">Webfolk</text><text x="0" y="105" font-family="Virgil, Segoe UI Emoji" font-size="28px" fill="#1e1e1e" text-anchor="start" style="white-space: pre;" direction="ltr" dominant-baseline="text-before-edge">NR1 W00</text></g><g transform="translate(764.839409722222 432.03993055555566) rotate(0 103.78197479248047 17.5)"><text x="0" y="0" font-family="Virgil, Segoe UI Emoji" font-size="28px" fill="#1e1e1e" text-anchor="start" style="white-space: pre;" direction="ltr" dominant-baseline="text-before-edge">0800 444 321</text></g><g transform="translate(768.372395833333 484.7265624999999) rotate(0 117.06795501708984 35)"><text x="0" y="0" font-family="Virgil, Segoe UI Emoji" font-size="28px" fill="#1e1e1e" text-anchor="start" style="white-space: pre;" direction="ltr" dominant-baseline="text-before-edge">hello@beavers.ltd</text><text x="0" y="35" font-family="Virgil, Segoe UI Emoji" font-size="28px" fill="#1e1e1e" text-anchor="start" style="white-space: pre;" direction="ltr" dominant-baseline="text-before-edge"></text></g><g transform="translate(545.0303819444443 155.7986111111111) rotate(0 124.6839370727539 35)"><text x="0" y="0" font-family="Virgil, Segoe UI Emoji" font-size="28px" fill="#1e1e1e" text-anchor="start" style="white-space: pre;" direction="ltr" dominant-baseline="text-before-edge">Keep on chomping...</text><text x="0" y="35" font-family="Virgil, Segoe UI Emoji" font-size="28px" fill="#1e1e1e" text-anchor="start" style="white-space: pre;" direction="ltr" dominant-baseline="text-before-edge"></text></g><g transform="translate(503.06857638888846 764.8090277777774) rotate(0 201.86386108398438 20)"><text x="0" y="0" font-family="Virgil, Segoe UI Emoji" font-size="16px" fill="#1e1e1e" text-anchor="start" style="white-space: pre;" direction="ltr" dominant-baseline="text-before-edge">Copyright 2029 Business Beavers Ltd. Company #1</text><text x="0" y="20" font-family="Virgil, Segoe UI Emoji" font-size="16px" fill="#1e1e1e" text-anchor="start" style="white-space: pre;" direction="ltr" dominant-baseline="text-before-edge"></text></g></svg>